<?xml version="1.0" encoding="UTF-8" standalone="no"?>
<!-- Created with Inkscape (http://www.inkscape.org/) -->

<svg
   width="205.50252mm"
   height="207.2701mm"
   viewBox="0 0 205.50252 207.2701"
   version="1.1"
   id="svg1"
   xml:space="preserve"
   inkscape:version="1.4.4 (dcaf3e7, 2026-05-05)"
   sodipodi:docname="favicon.svg"
   xmlns:inkscape="http://www.inkscape.org/namespaces/inkscape"
   xmlns:sodipodi="http://sodipodi.sourceforge.net/DTD/sodipodi-0.dtd"
   xmlns="http://www.w3.org/2000/svg"
   xmlns:svg="http://www.w3.org/2000/svg"><sodipodi:namedview
     id="namedview1"
     pagecolor="#ffffff"
     bordercolor="#000000"
     borderopacity="0.25"
     inkscape:showpageshadow="2"
     inkscape:pageopacity="0.0"
     inkscape:pagecheckerboard="0"
     inkscape:deskcolor="#d1d1d1"
     inkscape:document-units="mm"
     inkscape:zoom="0.74208053"
     inkscape:cx="549.13178"
     inkscape:cy="417.07064"
     inkscape:window-width="1920"
     inkscape:window-height="1051"
     inkscape:window-x="-9"
     inkscape:window-y="-9"
     inkscape:window-maximized="1"
     inkscape:current-layer="layer1" /><defs
     id="defs1" /><g
     inkscape:label="Layer 1"
     inkscape:groupmode="layer"
     id="layer1"
     transform="translate(-1.8667854,-41.745428)"><path
       style="display:none;fill:#000000"
       d="M 1.8667854,145.38047 V 41.745428 H 104.61804 207.3693 V 145.38047 249.01552 H 104.61804 1.8667854 Z"
       id="path86" /><path
       id="path82"
       style="display:inline;fill:#ffffff;fill-opacity:1"
       d="m 55.930875,227.05053 c 0.016,-1.45084 0.0149,-2.86119 -0.002,-3.13412 l -0.0313,-0.49624 -9.50554,-0.004 c -7.51503,-0.003 -9.66801,-0.0332 -10.2814,-0.14466 -1.85577,-0.33729 -3.91901,-1.76544 -5.10458,-3.53331 -0.49836,-0.74313 -1.11357,-2.11678 -1.36902,-3.05676 -0.22516,-0.82852 -0.22744,-0.91564 -0.26346,-10.05531 l -0.0363,-9.21955 h -3.02511 -3.02511 l 0.0428,9.21955 c 0.0462,9.96071 0.0407,9.85509 0.62419,12.04026 1.05304,3.94366 3.32107,6.93459 6.80878,8.97898 1.93225,1.13263 3.8665,1.75478 6.01608,1.93508 0.51043,0.0428 5.02196,0.0845 10.02564,0.0927 l 9.0976,0.0149 z m 116.213825,2.53783 c 3.42156,-0.1899 5.9314,-1.13186 8.51133,-3.19438 2.54143,-2.03174 4.25025,-4.83012 5.19707,-8.51076 0.22707,-0.88272 0.22864,-0.94631 0.26321,-10.68214 l 0.0348,-9.79414 h -2.97826 -2.97826 v 8.5033 c 0,8.83208 -0.0465,10.06921 -0.42599,11.32233 -0.74347,2.45533 -2.72086,4.68314 -4.95193,5.57905 -1.44811,0.58151 -0.85002,0.55003 -11.5422,0.60755 l -9.8957,0.0532 -0.0272,3.108 -0.0272,3.10801 8.58977,-0.005 c 4.72437,-0.002 9.3281,-0.0455 10.23051,-0.0956 z M 29.350935,94.111424 c 0.001,-4.910217 0.0453,-9.065543 0.10244,-9.618501 0.3945,-3.815415 3.18506,-7.066259 6.71317,-7.820477 0.60267,-0.128836 2.25835,-0.154801 10.17813,-0.159613 7.40216,-0.0045 9.48135,-0.03395 9.56405,-0.135467 0.0685,-0.08411 0.0961,-1.172155 0.0784,-3.094444 l -0.0273,-2.964726 h -9.89571 c -9.89345,0 -9.89594,5.3e-5 -10.94048,0.235726 -2.58412,0.583034 -4.8114,1.727802 -6.79482,3.492373 -1.90772,1.697213 -3.66225,4.598431 -4.35223,7.196641 -0.60958,2.29549 -0.59299,1.988476 -0.64757,11.982779 -0.0277,5.072014 -0.0242,9.291325 0.008,9.376255 0.0495,0.13133 0.5032,0.15441 3.03522,0.15441 h 2.97706 z M 186.11841,93.171187 c -0.0307,-9.501081 -0.033,-9.594366 -0.26151,-10.629906 -0.49659,-2.250323 -1.1263,-3.776905 -2.28397,-5.536953 -0.88891,-1.351442 -2.26088,-2.838622 -3.48091,-3.773214 -1.03306,-0.791369 -2.9588,-1.79431 -4.2784,-2.228228 -2.02551,-0.66604 -1.78331,-0.652742 -12.54845,-0.688952 l -9.80244,-0.03297 -0.0669,3.033296 c -0.0368,1.668313 -0.0416,3.075117 -0.0105,3.126231 0.0323,0.0532 4.15414,0.0928 9.63959,0.09262 10.26701,-3.37e-4 10.37226,0.0045 11.60885,0.529939 2.13075,0.905426 3.92396,2.755613 4.77758,4.929392 0.64704,1.647678 0.61688,1.122637 0.65405,11.387687 l 0.0339,9.376251 h 3.02504 3.02504 z" /><path
       id="path81"
       style="display:inline;fill:#fefeff;fill-opacity:1"
       d="M 104.56698 54.763238 C 102.08924 54.767038 101.01274 54.872332 98.208708 55.386973 C 92.817858 56.376389 88.497064 58.206717 83.596164 61.576259 C 81.328944 63.135055 79.76457 64.451712 77.56139 66.655019 C 74.31742 69.899185 72.25842 72.600029 69.60477 77.092108 C 66.25607 82.760765 63.32513 91.325952 62.02022 99.256646 C 60.65619 107.54659 60.361666 113.4547 60.626506 127.20274 C 60.714506 131.77316 60.79755 134.52581 61.08901 142.50775 C 61.44626 152.29173 62.226409 162.45765 63.197409 169.9836 C 64.580069 180.70018 65.913147 187.81033 67.703077 194.01159 C 67.935267 194.81601 68.212016 195.77958 68.318026 196.15306 C 68.866196 198.08448 70.824902 203.50526 71.894552 206.05168 C 74.075912 211.24463 77.355054 216.77451 80.706934 220.91279 C 82.055234 222.57741 85.460463 226.00146 86.871933 227.11189 C 89.099643 228.86447 92.092774 230.7266 94.021884 231.5602 C 96.524694 232.64171 99.662381 233.45193 102.53403 233.758 C 103.712 233.88356 106.28142 233.80983 107.89959 233.604 C 113.37384 232.90787 118.33515 230.6522 123.33276 226.58738 C 125.49146 224.83159 128.43718 221.64868 130.32509 219.03228 C 135.05323 212.47968 138.60487 204.77561 141.52234 194.74281 C 144.50167 184.49732 146.78053 169.31036 147.78501 153.00685 C 148.76388 137.11891 149.13061 117.93507 148.60822 109.96504 C 147.94762 99.886532 146.2122 91.627617 143.10881 83.795058 C 140.89951 78.219082 137.28352 72.362635 133.61172 68.414601 C 130.76334 65.35193 128.21193 63.144128 124.92232 60.895164 C 119.14603 56.946169 111.86183 54.751999 104.56698 54.763238 z M 105.28011 120.66774 C 109.91922 120.75055 114.70299 122.22464 119.54694 125.06747 C 124.6395 128.05621 129.2291 132.77989 133.64944 139.58235 C 134.86758 141.45693 136.61257 144.38992 136.61257 144.56292 C 136.61257 144.796 135.96476 145.86615 133.65306 149.45462 C 131.33333 153.05554 127.87257 157.11181 124.71717 159.92736 C 123.20902 161.27308 122.44998 161.86527 120.68382 163.07446 C 118.12142 164.8288 115.8828 165.9419 112.61661 167.08661 C 111.6296 167.43252 110.70245 167.77163 110.55628 167.84006 C 110.31672 167.95222 110.24181 168.15189 109.7956 169.86216 C 109.18228 172.21288 108.73537 173.69185 108.63908 173.6919 C 108.59878 173.69193 108.57765 171.28302 108.59205 168.33822 C 108.60645 165.39343 108.62993 162.30938 108.64373 161.48489 L 108.66854 159.98576 L 109.8788 159.63126 C 112.35615 158.90604 114.97901 157.69108 116.89129 156.38288 C 119.13495 154.84799 121.67355 152.4743 123.63041 150.08145 C 125.60831 147.66287 127.48599 145.0327 127.48599 144.68023 C 127.48599 144.13865 124.71499 140.21622 122.59275 137.75404 C 121.4611 136.44111 119.4374 134.49735 118.1031 133.44164 C 115.22254 131.16251 111.58746 129.44872 108.3099 128.82487 C 102.91672 127.79835 96.896963 129.39588 91.953793 133.16517 C 89.526133 135.01632 86.99907 137.5644 84.81056 140.36835 C 83.92788 141.49925 82.057703 144.28954 82.058273 144.47456 C 82.058863 144.66178 82.379425 145.16203 83.814755 147.21599 C 85.312795 149.35969 86.178143 150.43922 87.526673 151.8462 C 90.025453 154.45329 92.774477 156.59069 95.235247 157.84015 C 96.344117 158.40318 98.715654 159.33785 99.824114 159.64883 L 100.82405 159.92943 L 100.82405 161.77014 C 100.82412 162.78248 100.85487 165.76893 100.89227 168.40695 C 100.94297 171.97386 100.93029 173.18467 100.84369 173.13017 C 100.72298 173.05417 100.56216 172.52842 100.00757 170.40114 C 99.59082 168.80265 99.306012 167.99504 99.094442 167.81163 C 99.002242 167.73173 98.257563 167.4424 97.439763 167.16878 C 93.876813 165.97673 91.179759 164.65865 88.210869 162.65898 C 86.152939 161.27288 84.813977 160.12307 82.519227 157.77142 C 80.137597 155.33074 78.569139 153.39897 76.657569 150.55171 C 75.412459 148.69714 73.165509 144.96036 73.075359 144.59445 C 72.968259 144.15969 75.541502 139.96399 77.751042 136.97062 C 81.533902 131.84579 85.609845 127.92927 89.953915 125.24524 C 94.527025 122.4197 98.593946 121.04013 103.30142 120.71735 C 103.95801 120.67233 104.61738 120.65591 105.28011 120.66774 z M 97.254245 188.76074 C 97.566015 188.76601 97.875847 188.7859 98.181837 188.82069 C 99.206277 188.93715 99.95647 189.10822 102.33455 189.76688 C 104.71019 190.42486 105.72767 190.41714 107.88409 189.72658 C 110.05962 189.02988 110.19612 189.0055 111.94999 189.00104 C 113.76796 188.99604 114.90073 189.19048 116.60345 189.79789 C 119.24363 190.73973 121.73451 192.69465 122.71419 194.59398 C 123.85144 196.79878 123.73601 198.00189 122.35866 198.29143 C 122.27406 198.30923 121.90463 198.25814 121.53803 198.17774 C 121.17143 198.09734 120.38719 197.87046 119.79499 197.67338 C 116.35917 196.53002 114.27193 196.16995 112.23524 196.36906 C 111.6271 196.42856 110.16042 196.62219 108.97601 196.79953 C 107.30431 197.04982 106.45561 197.12305 105.18193 197.12819 C 103.53315 197.13519 102.99156 197.07796 100.15743 196.59954 C 99.004312 196.40488 98.092742 196.32774 96.516822 196.29103 C 94.259822 196.23843 93.995441 196.2648 90.569381 196.88273 C 89.582381 197.06074 88.401982 197.23448 87.946802 197.26875 C 87.133042 197.33005 87.115464 197.32601 86.895704 197.04138 C 86.764324 196.87122 86.672462 196.60386 86.672462 196.39232 C 86.672462 195.98497 87.091219 194.84625 87.471379 194.22036 C 88.199399 193.02177 89.597357 191.59836 90.985377 190.64228 C 92.788979 189.39994 95.071855 188.72391 97.254245 188.76074 z M 91.44633 200.56984 C 91.700065 200.55532 91.968755 200.55645 92.261268 200.57139 C 93.526968 200.63599 94.447737 200.94618 97.247527 202.25139 C 100.54069 203.78661 103.85603 204.36458 106.9627 203.94535 C 109.52559 203.59949 110.80148 203.19123 113.84083 201.74341 C 116.37627 200.53563 117.28484 200.36381 118.79712 200.806 C 120.03174 201.16701 121.36476 202.19211 121.49101 202.87771 C 121.64076 203.69094 121.06642 204.77393 119.83685 205.99638 C 116.44395 209.36965 112.6956 210.93612 107.13064 211.30614 C 105.55044 211.41121 105.41114 211.41056 103.33604 211.29374 C 99.338349 211.06873 95.804894 209.96122 92.876734 208.01538 C 91.549304 207.13327 89.972089 205.56743 88.969479 204.13603 C 87.883279 202.58528 87.971211 201.87108 89.334831 201.16981 C 90.059181 200.79729 90.685127 200.6134 91.44633 200.56984 z " /><path
       style="display:inline;fill:#000000;fill-opacity:1"
       d="m 99.667835,155.81323 c -1.3763,-0.77028 -2.08858,-1.29955 -3.13756,-2.33139 -1.13331,-1.11479 -2.21021,-2.6989 -2.68193,-3.94507 -1.33953,-3.53869 -0.93774,-7.47528 1.09363,-10.71513 0.48378,-0.77158 1.88975,-2.24294 2.81423,-2.94511 1.72136,-1.30743 3.471875,-1.99415 5.774985,-2.2655 2.41812,-0.2849 4.39101,0.0564 6.49326,1.12336 4.06874,2.06499 6.50074,6.00257 6.5109,10.54161 0.005,2.2292 -0.55768,4.22124 -1.72939,6.12266 -0.75225,1.22073 -1.23897,1.80092 -2.12518,2.53327 -1.02384,0.8461 -1.53644,1.18706 -2.60593,1.73335 -1.51555,0.77415 -1.35496,1.35373 -1.35496,-4.8903 0,-3.19295 -0.0421,-5.5924 -0.10407,-5.92507 -0.22799,-1.22474 -1.01556,-2.27607 -2.11999,-2.82998 -0.91325,-0.45803 -2.1397,-0.53647 -3.03164,-0.1939 -1.10525,0.42451 -1.97114,1.31884 -2.44368,2.52396 -0.21394,0.54561 -0.22034,0.70833 -0.243,6.17978 -0.0133,3.2146 -0.0632,5.65527 -0.11665,5.70319 -0.0514,0.0461 -0.49822,-0.1428 -0.993025,-0.41973 z"
       id="path80" /></g></svg>
